<?xml version="1.0" encoding="UTF-8"?>
<svg id="Layer_1" data-name="Layer 1" xmlns="http://www.w3.org/2000/svg" viewBox="0 0 700 700">
  <defs>
    <style>
      .cls-1, .cls-2 {
        stroke-width: 0px;
      }

      .cls-2 {
        fill: #fff;
      }
    </style>
  </defs>
  <polygon class="cls-2" points="350 95.63 568.91 223.13 567.95 476.46 348.07 602.3 129.16 474.8 130.13 221.46 350 95.63"/>
  <path class="cls-1" d="M597.46,354.47c0,40.16-.1,80.31.09,120.47.04,7.55-3,12.51-9.27,16.35-61.39,37.57-122.72,75.24-184.07,112.89-15.05,9.24-30.07,18.53-45.18,27.67-2.57,1.55-4.35,4.05-8.07,4.33-4.53.33-6.97-2.45-10.1-4.38-15.9-9.76-31.8-19.54-47.7-29.3-60.21-36.96-120.38-73.96-180.66-110.8-6.98-4.26-10.49-9.65-9.98-17.99.45-7.47.11-14.99.09-22.49-.11-71.82-.1-143.63-.49-215.45-.06-10.3,3.52-16.84,12.32-22.44,75.33-47.97,150.39-96.36,225.61-144.5,2.67-1.71,4.48-4.64,8.32-4.98,4.49-.39,7.33,1.98,10.65,4.13,22.09,14.32,44.27,28.51,66.42,42.73,54.11,34.76,108.18,69.59,162.4,104.18,7.15,4.56,10.08,10.32,10.04,18.6-.17,40.33-.08,80.65-.08,120.98-.12,0-.23,0-.35,0ZM434.47,154.69c-.21-1.14-1.2-1.5-2.02-2.03-26.52-16.94-53.05-33.87-79.53-50.87-2.14-1.37-3.77-1.34-5.89.03-26.47,17.02-52.98,33.98-79.52,50.89-2.54,1.62-2.45,2.53.03,4.11,26.55,16.89,53.07,33.85,79.55,50.85,2.13,1.37,3.8,1.36,5.91,0,26.48-17.01,52.99-33.96,79.5-50.92.82-.53,1.84-.87,1.97-2.06ZM434.49,422.22c-.44-1.42-1.84-1.82-2.93-2.5-26.28-16.41-52.58-32.78-78.84-49.23-1.95-1.22-3.36-1.33-5.39-.06-26.27,16.43-52.58,32.78-78.94,49.07-3.05,1.88-3.97,2.9-.19,5.23,26.35,16.29,52.61,32.73,78.83,49.25,2.22,1.4,3.74,1.27,5.83-.03,26.57-16.58,53.18-33.08,79.78-49.61.82-.51,1.87-.82,1.86-2.13ZM233.86,174.1c-.98.55-1.87.99-2.69,1.51-24.98,15.98-49.92,32.02-74.97,47.88-4.01,2.54-2.78,3.6.37,5.6,23.92,15.17,47.85,30.31,71.5,45.89,4.61,3.04,7.67,2.67,11.95-.12,23.73-15.45,47.57-30.73,71.51-45.86,3.81-2.41,3.32-3.47-.04-5.6-24.75-15.72-49.42-31.56-74.13-47.35-1.1-.71-2.29-1.28-3.5-1.96ZM546.65,226.04c-.47-1.41-1.9-1.75-2.98-2.44-21.14-13.59-42.3-27.16-63.48-40.68-4.61-2.94-9.29-7.81-14.03-7.93-4.46-.11-9.11,4.8-13.58,7.65-21.47,13.69-42.92,27.43-64.34,41.2-1.52.98-4.94,1.84-1.06,4.32,25.53,16.3,51.07,32.6,76.57,48.93,1.81,1.16,3.29,1.01,5.04-.11,25.35-16.28,50.72-32.51,76.09-48.76.8-.52,1.89-.83,1.76-2.18ZM217.75,474.45s.04,0,.06,0c0-13.32-.07-26.63.05-39.95.03-3.02-1-4.86-3.61-6.43-25.38-15.28-50.69-30.67-76.03-46.02-1.09-.66-2.16-2.01-3.55-1.18-1.38.83-.67,2.43-.68,3.68-.03,26.3.03,52.6-.07,78.9-.01,3.02.9,4.9,3.5,6.49,25.43,15.52,50.81,31.11,76.16,46.76,3.18,1.97,4.26,1.65,4.22-2.31-.14-13.31-.05-26.63-.05-39.95ZM334.05,297.56s-.05,0-.07,0c0-13.48-.02-26.96.02-40.45,0-2.89-.08-4.79-3.74-2.43-25.6,16.5-51.26,32.9-76.95,49.25-2.39,1.52-3.32,3.22-3.31,6.06.12,26.3.16,52.6.08,78.9-.01,3.78.93,3.92,3.86,2.11,25.34-15.65,50.71-31.27,76.16-46.76,3.15-1.92,4.08-4.22,4.04-7.74-.17-12.98-.07-25.97-.07-38.95ZM566.09,297.8c0-13.5,0-27,0-40.5,0-1.13.49-2.57-.55-3.3-1.42-.99-2.44.47-3.5,1.14-25.57,16.3-51.12,32.64-76.71,48.9-2.22,1.41-3.13,3.03-3.13,5.68.07,26.5.06,53,0,79.49,0,3.2.58,3.91,3.6,2.05,25.51-15.76,51.08-31.44,76.69-47.05,2.78-1.69,3.72-3.74,3.68-6.93-.16-13.16-.07-26.33-.06-39.5ZM217.76,349.63h.06c0-13.16-.08-26.32.06-39.47.03-3.04-1.02-4.82-3.58-6.44-25.32-16.04-50.56-32.2-75.85-48.3-1.18-.75-2.27-2.5-3.89-1.5-1.28.8-.57,2.46-.57,3.73-.02,26.31.07,52.63-.1,78.94-.02,3.82,1.12,6.06,4.39,8.04,25.21,15.27,50.34,30.67,75.42,46.15,3.2,1.98,4.16,1.83,4.11-2.19-.15-12.99-.06-25.98-.06-38.97ZM366,297.28s-.02,0-.03,0c0,13.16.13,26.32-.08,39.48-.06,3.63,1.13,5.76,4.21,7.64,25.46,15.52,50.83,31.18,76.23,46.79.93.57,1.8,1.91,3.04.98,1.25-.94.58-2.48.59-3.75.02-25.82-.04-51.64.07-77.47.01-3.31-.8-5.46-3.77-7.35-25.48-16.12-50.85-32.41-76.25-48.64-.95-.6-1.85-1.78-3.08-1.23-1.61.71-.88,2.34-.89,3.56-.04,13.33-.03,26.65-.03,39.98ZM566.11,424.99h.02c0-13.48-.02-26.97.01-40.45,0-2.95-.31-4.72-3.86-2.5-25.65,16.11-51.34,32.15-77.06,48.15-2.26,1.4-3.04,3.12-3.03,5.73.06,26.13.06,52.27-.04,78.4-.02,4.04.89,4.67,4.43,2.47,25.17-15.62,50.4-31.14,75.7-46.56,2.99-1.82,3.94-3.94,3.89-7.29-.16-12.65-.06-25.3-.06-37.95ZM449.84,494.01h.02c0-13.33-.03-26.65.02-39.98,0-2.69-.06-4.43-3.43-2.29-25.58,16.24-51.19,32.43-77.26,47.87-2.25,1.33-3.19,3.09-3.17,5.72.18,25.98.26,51.96.46,77.94.01,1.73-1.15,4.08.66,5.11,1.78,1.02,3.31-1.05,4.75-1.97,25.03-15.88,50-31.86,75.03-47.73,2.28-1.44,3-3.09,2.98-5.71-.12-12.99-.06-25.98-.06-38.98ZM250.24,494.89h-.06c0,13.16.08,26.32-.06,39.47-.03,2.84.84,4.64,3.24,6.13,25.46,15.81,50.88,31.68,76.28,47.58,2.82,1.77,4.14,1.67,4.14-2.14-.01-25.81.04-51.63.15-77.44.01-3.51-1.26-5.84-4.32-7.74-25.18-15.63-50.3-31.36-75.36-47.18-3.51-2.21-4.07-1.26-4.04,2.35.11,12.99.04,25.98.04,38.97Z"/>
</svg>